<svg width="100" height="100" fill="none" xmlns="http://www.w3.org/2000/svg"><path fill="#fff" d="M0 0h100v100H0z"/><path fill-rule="evenodd" clip-rule="evenodd" d="M25.932 61.32a19.209 19.209 0 0 0 10.804 6.91l.718-2.976a16.1 16.1 0 0 1-9.056-5.793 15.648 15.648 0 0 1-3.286-10.124 15.68 15.68 0 0 1 3.967-9.885 16.145 16.145 0 0 1 9.428-5.184 16.33 16.33 0 0 1 7.978.666 18.88 18.88 0 0 0-5.634 7.826 18.586 18.586 0 0 0-.457 11.927 18.872 18.872 0 0 0 6.907 9.811 19.387 19.387 0 0 0 11.508 3.772 19.36 19.36 0 0 0 12.752-4.764 18.777 18.777 0 0 0 6.309-11.9 18.641 18.641 0 0 0-3.326-13.017c-2.692-3.79-6.705-6.477-11.278-7.549l-.715 2.967a16.1 16.1 0 0 1 9.052 5.793 15.649 15.649 0 0 1 3.285 10.12 15.68 15.68 0 0 1-3.964 9.884A16.145 16.145 0 0 1 61.5 64.99a16.32 16.32 0 0 1-7.987-.666 18.862 18.862 0 0 0 5.886-8.556 18.587 18.587 0 0 0-.32-12.675 18.962 18.962 0 0 0-8.4-9.616 19.447 19.447 0 0 0-12.688-2.214 19.262 19.262 0 0 0-11.249 6.185 18.705 18.705 0 0 0-4.731 11.794 18.669 18.669 0 0 0 3.921 12.078Zm24.434 1.527a15.842 15.842 0 0 0 6.085-8.039 15.58 15.58 0 0 0-.268-10.624 15.88 15.88 0 0 0-6.55-7.772 15.85 15.85 0 0 0-6.09 8.055 15.58 15.58 0 0 0 .28 10.62 15.88 15.88 0 0 0 6.543 7.76Z" fill="#000"/></svg>