<svg width="24" height="24" fill="none" xmlns="http://www.w3.org/2000/svg"><path d="M11.997 22c-.117 0-.236-.002-.355-.006l-.03-.001-.009-.001h-.023a12.194 12.194 0 0 1-.384-.024h.001a10.294 10.294 0 0 1-.35-.034l-.019-.002a9.454 9.454 0 0 1-.074-.009C5.819 21.31 2 17.101 2 12c0-5.1 3.82-9.31 8.754-9.923l.06-.007c.107-.013.215-.024.324-.033l-.384.04a10.025 10.025 0 0 1 1.044-.075l-.088.002A9.22 9.22 0 0 1 11.998 2H12c.114 0 .226.002.34.006L12 2c.14 0 .278.003.416.008L12 2a10.18 10.18 0 0 1 1.726.148C18.427 2.966 22 7.066 22 12c0 5.253-4.05 9.56-9.198 9.968h.001l-.062.004-.001.001-.106.007-.15.008-.08.004h-.021l-.011.001-.044.002c-.109.003-.218.005-.328.005h-.003Zm2.015-5.999H9.87c.368 1.69.995 3.216 1.809 4.492.1.005.2.007.299.007.896-1.25 1.6-2.782 2.034-4.499Zm5.49 0h-3.948a15.552 15.552 0 0 1-1.66 4.287A8.513 8.513 0 0 0 19.502 16ZM8.34 16H4.497a8.52 8.52 0 0 0 5.294 4.21A15.907 15.907 0 0 1 8.339 16Zm-.093-6.5H3.874A8.499 8.499 0 0 0 3.5 12c0 .87.13 1.71.374 2.501h4.235A18.294 18.294 0 0 1 8.248 9.5Zm6.066 0H9.77a16.822 16.822 0 0 0-.151 5h4.695c.122-.804.186-1.64.186-2.5 0-.86-.064-1.695-.186-2.5Zm5.812 0H15.83c.112.81.171 1.646.171 2.5a18.2 18.2 0 0 1-.171 2.5l4.297.001c.243-.79.374-1.63.374-2.501 0-.87-.13-1.71-.374-2.5Zm-9.671-5.86-.197.038A8.513 8.513 0 0 0 4.497 8H8.57c.423-1.617 1.068-3.092 1.885-4.36Zm1.724.147-.12.16c-.825 1.14-1.49 2.514-1.935 4.052h3.89c-.402-1.588-1.034-3.016-1.835-4.212Zm1.715-.076.027.045A15.57 15.57 0 0 1 15.554 8h3.948a8.515 8.515 0 0 0-5.609-4.288Z" fill="#E1A19B"/></svg>