<svg width="24" height="24" fill="none" xmlns="http://www.w3.org/2000/svg"><path d="M2 12c0 5.52 4.48 10 10 10s10-4.48 10-10S17.52 2 12 2 2 6.48 2 12Zm8.75 6.25v-.5a1 1 0 0 1 1-1h.5a1 1 0 0 1 1 1v.5a1 1 0 0 1-1 1h-.5a1 1 0 0 1-1-1Zm3.42-6.08c-.535.543-.921 1.014-1.084 1.836a2.304 2.304 0 0 0-.022.13 1 1 0 0 1-.99.864H12a.958.958 0 0 1-.954-1.039c.008-.098.017-.171.027-.221a4.05 4.05 0 0 1 1.097-2.07l1.24-1.26c.37-.36.59-.86.59-1.41 0-1.1-.9-2-2-2-.699 0-1.317.363-1.675.91-.063.097-.12.227-.172.39A1 1 0 0 1 9.2 9H9a.854.854 0 0 1-.833-1.043c.06-.266.13-.482.206-.647A4 4 0 0 1 12 5c2.21 0 4 1.79 4 4 0 .88-.36 1.68-.93 2.25l-.9.92Z" fill="#E1A19B"/></svg>