<svg width="16" height="16" fill="none" xmlns="http://www.w3.org/2000/svg"><path d="M8.822.503c1.306.003 1.593.013 2.27.044.797.037 1.342.164 1.82.349.492.191.91.448 1.327.865.417.416.673.835.865 1.328.185.477.312 1.022.349 1.82.033.738.043 1.012.045 2.652v.878c-.002 1.64-.012 1.914-.045 2.652-.037.798-.164 1.343-.349 1.82a3.675 3.675 0 0 1-.865 1.328 3.675 3.675 0 0 1-1.328.865c-.477.185-1.022.312-1.82.348-.738.034-1.012.044-2.652.045h-.878c-1.64-.001-1.914-.01-2.652-.045-.798-.036-1.343-.163-1.82-.348a3.675 3.675 0 0 1-1.328-.865 3.675 3.675 0 0 1-.865-1.328c-.185-.477-.312-1.022-.349-1.82-.03-.676-.041-.963-.044-2.27V7.179a40.53 40.53 0 0 1 .044-2.27c.037-.797.164-1.342.349-1.82.192-.492.448-.91.865-1.327A3.675 3.675 0 0 1 3.089.896C3.566.71 4.11.584 4.909.547c.676-.03.963-.041 2.27-.044h1.643Zm-.01 1.494h-1.63a38.155 38.155 0 0 0-2.143.042c-.713.033-1.1.152-1.359.252a2.268 2.268 0 0 0-.841.548c-.256.256-.415.5-.548.841-.1.258-.22.646-.252 1.36-.03.647-.04.915-.042 2.142v1.63c.003 1.227.013 1.494.042 2.142.033.713.152 1.101.252 1.359.133.341.292.585.548.841.256.257.5.415.841.548.258.1.646.22 1.36.252.71.032.962.041 2.52.042h.874c1.557 0 1.81-.01 2.52-.042.714-.033 1.101-.152 1.36-.252.34-.133.585-.291.84-.547.257-.257.415-.5.548-.842.1-.258.22-.646.252-1.359.035-.772.043-1.003.043-2.957V7.77c-.001-1.747-.01-1.99-.043-2.73-.033-.714-.152-1.102-.252-1.36a2.267 2.267 0 0 0-.547-.841 2.269 2.269 0 0 0-.842-.548c-.258-.1-.645-.22-1.359-.252a37.3 37.3 0 0 0-2.142-.042ZM8 4a4 4 0 1 1 0 8 4 4 0 0 1 0-8Zm0 1.5a2.5 2.5 0 1 0 0 5 2.5 2.5 0 0 0 0-5Zm4.002-2.402a.9.9 0 1 1 0 1.8.9.9 0 0 1 0-1.8Z" fill="#E1A19B"/></svg>