<svg viewBox="0 0 166 18" fill="none" xmlns="http://www.w3.org/2000/svg"><g clip-path="url(#a)"><path d="M6.84 17.633a8.917 8.917 0 0 1-5.016-3.208A8.667 8.667 0 0 1 .003 8.818 8.684 8.684 0 0 1 2.2 3.343 8.942 8.942 0 0 1 7.422.471a9.028 9.028 0 0 1 5.89 1.028 8.802 8.802 0 0 1 3.9 4.464 8.629 8.629 0 0 1 .148 5.885 8.783 8.783 0 0 1-3.67 4.649l-.774-1.198a7.362 7.362 0 0 0 3.076-3.897 7.233 7.233 0 0 0-.125-4.932A7.379 7.379 0 0 0 12.6 2.729a7.567 7.567 0 0 0-4.937-.862 7.495 7.495 0 0 0-4.378 2.406 7.279 7.279 0 0 0-1.841 4.59 7.264 7.264 0 0 0 1.525 4.7 7.475 7.475 0 0 0 4.204 2.688l-.333 1.382Z"/><path d="M17.086 17.651a9 9 0 0 1-5.342-1.75 8.761 8.761 0 0 1-3.207-4.555 8.628 8.628 0 0 1 .212-5.537 8.791 8.791 0 0 1 3.546-4.304l.775 1.197a7.362 7.362 0 0 0-3.07 3.9 7.233 7.233 0 0 0 .129 4.93 7.379 7.379 0 0 0 3.27 3.738 7.567 7.567 0 0 0 4.936.859 7.495 7.495 0 0 0 4.375-2.408 7.279 7.279 0 0 0 1.84-4.588 7.264 7.264 0 0 0-1.524-4.698 7.474 7.474 0 0 0-4.203-2.69l.332-1.377a8.909 8.909 0 0 1 5.236 3.505 8.654 8.654 0 0 1 1.544 6.042 8.717 8.717 0 0 1-2.929 5.525 8.987 8.987 0 0 1-5.92 2.211ZM33.508.313c5.626 0 9.573 2.037 9.573 8.676 0 6.687-3.947 8.7-9.573 8.7h-4.283V.312h4.283Zm-.049 1.462h-2.607v14.452h2.607c4.019 0 7.893-.815 7.893-7.238 0-6.424-3.874-7.214-7.893-7.214ZM49.03.313c4.214 0 7.235.98 7.235 5.129 0 4.193-3.021 5.057-7.234 5.057h-3.652v7.185h-1.64V.312h5.292Zm-3.65 1.462v7.238h3.872c2.899 0 5.31-.336 5.31-3.571 0-3.236-2.41-3.667-5.31-3.667h-3.873ZM63.019 0c3.483 0 5.92 1.679 6.577 4.65H67.89c-.609-2.013-2.338-3.116-5.043-3.116-1.778 0-4.287.696-4.287 2.972 0 1.75 1.438 2.613 3.41 3.068l2.096.455c2.532.576 5.943 1.558 5.943 4.89C70.01 16.25 66.91 18 63.48 18c-4.408 0-6.844-2.421-7.234-5.537h1.705c.609 2.78 2.558 4.003 5.456 4.003 1.924 0 4.896-.696 4.896-3.283 0-2.11-2.094-3.116-4.58-3.645l-2.212-.479c-2.314-.503-4.629-1.633-4.629-4.482C56.88 1.39 60.168 0 63.02 0Zm13.02.313c4.214 0 7.235.98 7.235 5.129 0 4.193-3.02 5.057-7.235 5.057h-3.652v7.185h-1.634V.312h5.286Zm-3.652 1.462v7.238h3.873c2.899 0 5.311-.336 5.311-3.571 0-3.236-2.412-3.667-5.311-3.667h-3.873ZM96.576 0c3.483 0 5.92 1.678 6.577 4.65h-1.705c-.609-2.013-2.338-3.116-5.042-3.116-1.779 0-4.288.696-4.288 2.972 0 1.75 1.438 2.613 3.411 3.068l2.095.455c2.532.576 5.943 1.558 5.943 4.89 0 3.331-3.099 5.082-6.529 5.082-4.408 0-6.844-2.421-7.234-5.537h1.705c.609 2.78 2.558 4.003 5.456 4.003 1.924 0 4.897-.696 4.897-3.283 0-2.11-2.095-3.116-4.58-3.645L95.07 9.06c-2.314-.503-4.628-1.633-4.628-4.482C90.437 1.39 93.726 0 96.576 0Zm12.333 1.799h-5.944V.313h13.519v1.486h-5.943v15.89h-1.632V1.799ZM119.024.313v10.64c0 3.74 1.389 5.514 5.14 5.514 3.824 0 5.188-2.038 5.188-5.8V.312h1.632v10.162c0 5.057-1.827 7.526-6.82 7.526-4.799 0-6.772-1.942-6.772-7.335V.312h1.632Zm17.453 0c5.627 0 9.573 2.037 9.573 8.676 0 6.687-3.946 8.7-9.573 8.7h-4.288V.312h4.288Zm-.05 1.46h-2.605v14.454h2.605c4.02 0 7.893-.815 7.893-7.238 0-6.424-3.873-7.215-7.893-7.215Zm12.326 15.916h-1.632V.312h1.632V17.69Zm9.155.312c-4.992 0-8.086-3.716-8.086-9.012 0-5.297 3.098-8.989 8.086-8.989s8.088 3.692 8.088 8.989c0 5.296-3.091 9.012-8.088 9.012Zm0-1.534c3.606 0 6.358-2.709 6.358-7.478 0-4.77-2.752-7.455-6.358-7.455s-6.356 2.685-6.356 7.455 2.755 7.478 6.356 7.478Z"/></g><defs><clipPath id="a"><path fill="#fff" d="M0 0h166v18H0z"/></clipPath></defs></svg>