<svg viewBox="0 0 24 24" fill="none" xmlns="http://www.w3.org/2000/svg"><path d="M15.098 11.997a3.095 3.095 0 1 1-3.095-3.094 3.1 3.1 0 0 1 3.095 3.094ZM12.003 1.715C6.33 1.715 1.714 6.33 1.714 12.004s4.616 10.282 10.29 10.282c2.075 0 4.08-.619 5.795-1.792l.032-.02-1.386-1.61-.026.012a8.178 8.178 0 0 1-4.416 1.296c-4.506 0-8.174-3.668-8.174-8.175 0-4.506 3.668-8.174 8.174-8.174 4.506 0 8.175 3.668 8.175 8.174 0 .587-.065 1.174-.194 1.76-.258 1.064-.999 1.386-1.56 1.341-.56-.045-1.218-.445-1.225-1.425v-1.676a5.208 5.208 0 0 0-5.202-5.202 5.208 5.208 0 0 0-5.203 5.202 5.208 5.208 0 0 0 5.203 5.203 5.185 5.185 0 0 0 3.687-1.534 3.347 3.347 0 0 0 2.572 1.534c.09.006.188.013.278.013.748 0 1.489-.252 2.088-.703.62-.47 1.077-1.148 1.329-1.96.038-.129.116-.432.116-.432v-.013c.148-.65.219-1.302.219-2.108.006-5.666-4.61-10.282-10.283-10.282Z"/></svg>