<svg width="24" height="24" fill="none" xmlns="http://www.w3.org/2000/svg"><path d="M14.5 21h5a1.5 1.5 0 0 0 1.5-1.5v-5a1.5 1.5 0 0 0-1.5-1.5h-5a1.5 1.5 0 0 0-1.5 1.5v5a1.5 1.5 0 0 0 1.5 1.5ZM11 19.5v-5A1.5 1.5 0 0 0 9.5 13h-5A1.5 1.5 0 0 0 3 14.5v5A1.5 1.5 0 0 0 4.5 21h5a1.5 1.5 0 0 0 1.5-1.5ZM4.5 11h5A1.5 1.5 0 0 0 11 9.5v-5A1.5 1.5 0 0 0 9.5 3h-5A1.5 1.5 0 0 0 3 4.5v5A1.5 1.5 0 0 0 4.5 11Zm7.56-2.6 3.54 3.538a1.5 1.5 0 0 0 2.12 0L21.26 8.4a1.498 1.498 0 0 0-.002-2.12L17.72 2.746a1.5 1.5 0 0 0-2.12 0l-3.538 3.532a1.498 1.498 0 0 0-.003 2.12h.002Z" fill="#E1A19B"/></svg>