<svg viewBox="0 0 200 200" fill="none" xmlns="http://www.w3.org/2000/svg"><path d="M152.317 21.744C113.9 22.461 87.139 3.05 68.628 3.4c-18.511.35-57.2 11.717-55.606 96.889 1.595 85.172 54.134 96.689 74.5 96.311 95.35-1.783 132.839-176.128 64.795-174.856Z" fill="#EFEFEF"/><path d="m57.352 19.925 7.857-7.856 3.929 3.928-7.857 7.857-3.928-3.928ZM34.769 42.51l7.856-7.856 3.929 3.928-7.857 7.857-3.928-3.928Zm.009-27.487 3.929-3.928 7.856 7.857-3.928 3.928-7.857-7.857Zm127.721 32.199c-4.594 0-8.333-3.739-8.333-8.333s3.739-8.333 8.333-8.333c4.595 0 8.334 3.739 8.334 8.333s-3.739 8.333-8.334 8.333Zm0-11.11a2.782 2.782 0 0 0-2.777 2.777 2.782 2.782 0 0 0 2.777 2.778 2.782 2.782 0 0 0 2.778-2.778 2.782 2.782 0 0 0-2.778-2.778Z" fill="#A4AFC1"/><path d="m104.983 43.55 10.939-4.972c6.345-2.884 13.806.205 16.256 6.733l4.222 11.25a12.044 12.044 0 0 0 7.044 7.045l11.25 4.222c6.528 2.45 9.617 9.911 6.734 16.255l-4.972 10.94a12.03 12.03 0 0 0 0 9.96l4.972 10.939c2.883 6.345-.206 13.806-6.734 16.256l-11.25 4.222a12.043 12.043 0 0 0-7.044 7.045l-4.222 11.25c-2.45 6.527-9.911 9.616-16.256 6.733l-10.939-4.972a12.03 12.03 0 0 0-9.96 0l-10.94 4.972c-6.344 2.883-13.805-.206-16.255-6.733l-4.222-11.25a12.043 12.043 0 0 0-7.045-7.045l-11.25-4.222c-6.528-2.45-9.617-9.911-6.733-16.256l4.972-10.939a12.032 12.032 0 0 0 0-9.96l-4.972-10.94c-2.884-6.344.205-13.805 6.733-16.255l11.25-4.222a12.044 12.044 0 0 0 7.045-7.045l4.222-11.25c2.45-6.528 9.911-9.617 16.255-6.733l10.94 4.972a12.032 12.032 0 0 0 9.96 0Z" fill="#F7E4E0"/><path d="m71.317 123.611-6.039-35.183 19.628 9.56 15.095-27.155 15.094 27.156 19.628-9.561-6.039 35.183H71.317Z" fill="#F3F3F1"/><path d="m65.278 88.428 6.04 35.183h11.11L77.4 94.333l-12.122-5.905Z" fill="#D5DBE1"/><path d="M106.128 43.55a12.032 12.032 0 0 0 9.961 0l10.278-4.672c-3.15-1.611-6.956-1.89-10.45-.3l-10.361 4.71.572.262Z" fill="#F7E4E0"/><path d="m78.939 154.683-4.222-11.25a12.044 12.044 0 0 0-7.045-7.044l-11.25-4.222c-6.527-2.45-9.616-9.911-6.733-16.256l4.967-10.939a12.032 12.032 0 0 0 0-9.96l-4.967-10.94c-2.883-6.344.206-13.805 6.733-16.255l11.25-4.223a12.044 12.044 0 0 0 7.045-7.044l4.222-11.25c1.1-2.933 3.239-5.117 5.806-6.433l-.662-.3c-6.344-2.884-13.805.205-16.255 6.733l-4.222 11.25a12.044 12.044 0 0 1-7.045 7.044l-11.25 4.223c-6.528 2.45-9.617 9.91-6.733 16.255l4.966 10.94a12.032 12.032 0 0 1 0 9.96l-4.966 10.939c-2.884 6.345.205 13.806 6.733 16.256l11.25 4.222a12.044 12.044 0 0 1 7.045 7.044l4.222 11.25c2.45 6.528 9.911 9.617 16.255 6.734l.662-.3c-2.567-1.317-4.706-3.5-5.806-6.434Z" fill="#E9B1A5"/><path d="M116.095 156.45a12.034 12.034 0 0 0-9.962 0l-.577.261 10.361 4.706c3.494 1.589 7.305 1.311 10.45-.3l-10.272-4.667Z" fill="#F7E4E0"/><path d="M79.1 166.656c-2.11 0-4.216-.406-6.2-1.228a16.26 16.26 0 0 1-8.972-9.284L59.706 144.9a7.87 7.87 0 0 0-4.606-4.606l-11.25-4.222a16.256 16.256 0 0 1-9.278-8.966 16.253 16.253 0 0 1 .223-12.912l4.972-10.938a7.879 7.879 0 0 0 0-6.512l-4.972-10.939a16.274 16.274 0 0 1-.223-12.91 16.25 16.25 0 0 1 9.284-8.967L55.1 59.706a7.877 7.877 0 0 0 4.611-4.606l4.223-11.245a16.276 16.276 0 0 1 8.972-9.283 16.237 16.237 0 0 1 12.905.222l10.934 4.967a7.857 7.857 0 0 0 6.511 0h.005l10.939-4.967a16.262 16.262 0 0 1 12.906-.222 16.26 16.26 0 0 1 8.972 9.283L140.3 55.1a7.868 7.868 0 0 0 4.606 4.605l11.25 4.223a16.257 16.257 0 0 1 9.278 8.966 16.249 16.249 0 0 1-.223 12.911l-4.972 10.94a7.878 7.878 0 0 0 0 6.511l4.972 10.938a16.276 16.276 0 0 1 .223 12.912 16.25 16.25 0 0 1-9.284 8.966l-11.244 4.222a7.878 7.878 0 0 0-4.611 4.606l-4.222 11.244a16.28 16.28 0 0 1-8.973 9.284 16.239 16.239 0 0 1-12.905-.222l-10.934-4.973a7.935 7.935 0 0 0-6.516 0l-10.94 4.973a16.202 16.202 0 0 1-6.705 1.45Zm0-124.99c-1.016 0-2.039.2-3.01.6a7.802 7.802 0 0 0-4.362 4.512l-4.222 11.244a16.196 16.196 0 0 1-9.483 9.478l-11.245 4.222a7.809 7.809 0 0 0-4.511 4.356 7.8 7.8 0 0 0 .105 6.272l4.973 10.939a16.188 16.188 0 0 1 0 13.411l-4.972 10.939a7.8 7.8 0 0 0-.106 6.272 7.797 7.797 0 0 0 4.511 4.356l11.25 4.222a16.21 16.21 0 0 1 9.483 9.478l4.223 11.244a7.8 7.8 0 0 0 4.36 4.511 7.83 7.83 0 0 0 6.267-.111l10.94-4.972a16.129 16.129 0 0 1 13.405 0l10.939 4.972a7.864 7.864 0 0 0 6.272.111 7.8 7.8 0 0 0 4.361-4.511l4.222-11.244a16.194 16.194 0 0 1 9.484-9.478l11.244-4.222a7.809 7.809 0 0 0 4.511-4.356 7.798 7.798 0 0 0-.105-6.272l-4.973-10.939a16.194 16.194 0 0 1 0-13.411l4.973-10.939a7.798 7.798 0 0 0 .105-6.272 7.79 7.79 0 0 0-4.511-4.356l-11.25-4.222a16.21 16.21 0 0 1-9.483-9.478l-4.222-11.244a7.804 7.804 0 0 0-4.362-4.511 7.807 7.807 0 0 0-6.266.11l-10.939 4.967a16.104 16.104 0 0 1-13.411 0L82.36 42.378a7.898 7.898 0 0 0-3.26-.711Z" fill="#000"/><path d="M128.683 127.778H71.317a4.167 4.167 0 0 1-4.106-3.461l-6.039-35.184a4.178 4.178 0 0 1 1.606-4.038 4.158 4.158 0 0 1 4.328-.412l16.078 7.828L96.36 68.806c1.467-2.65 5.811-2.65 7.284 0L109.2 78.8l-7.289 4.05L100 79.411l-11.455 20.6a4.153 4.153 0 0 1-5.467 1.722l-12.317-6 4.067 23.717h50.344l4.067-23.717-12.317 6c-2 .984-4.394.217-5.466-1.722L105.6 89.478l7.289-4.05 3.933 7.078 16.078-7.828a4.16 4.16 0 0 1 4.328.41 4.171 4.171 0 0 1 1.605 4.04l-6.038 35.183a4.178 4.178 0 0 1-4.112 3.467Z" fill="#000"/></svg>