<svg viewBox="0 0 14 14" fill="none" xmlns="http://www.w3.org/2000/svg"><path d="M9.857.071c.316 0 .572.256.572.572v.662c.48.077.79.2 1.103.367a3.12 3.12 0 0 1 1.296 1.296c.271.508.427 1.012.454 2.246h.004V9.39l-.003.349c-.024 1.268-.18 1.779-.455 2.293a3.115 3.115 0 0 1-1.296 1.296c-.559.298-1.113.458-2.642.458H5.11l-.35-.003c-1.268-.024-1.778-.18-2.292-.455a3.115 3.115 0 0 1-1.296-1.296c-.287-.537-.445-1.069-.457-2.463V5.214c.03-1.234.186-1.738.457-2.246a3.115 3.115 0 0 1 1.296-1.296c.312-.167.623-.29 1.104-.367V.643a.571.571 0 1 1 1.142 0v.575c.124-.003.256-.004.395-.004H8.89c.14 0 .272.001.397.004L9.286.643c0-.316.255-.572.571-.572Zm2.285 6.286H1.857v3.195l.006.325c.022.861.113 1.234.317 1.616.192.36.468.634.827.827.427.228.842.315 1.94.322h4.105l.325-.005c.861-.022 1.234-.113 1.616-.317.36-.193.635-.468.827-.827.228-.427.315-.842.322-1.941V6.357ZM9.883 9.214c.248 0 .442.047.605.134a.91.91 0 0 1 .378.378c.088.163.134.357.134.605v.052c0 .248-.046.442-.134.605a.91.91 0 0 1-.378.378 1.252 1.252 0 0 1-.605.134h-.052a1.25 1.25 0 0 1-.605-.134.91.91 0 0 1-.378-.378 1.251 1.251 0 0 1-.134-.605v-.052c0-.248.047-.442.134-.605a.909.909 0 0 1 .378-.378 1.25 1.25 0 0 1 .605-.134h.052Zm-.83-6.856H4.947l-.234.002v.568a.571.571 0 1 1-1.143 0v-.461c-.218.05-.39.12-.564.213a1.97 1.97 0 0 0-.827.827c-.211.395-.301.78-.32 1.706l10.279.001-.002-.091c-.022-.862-.113-1.234-.317-1.616a1.973 1.973 0 0 0-.827-.827 2.19 2.19 0 0 0-.564-.213v.461a.571.571 0 1 1-1.143 0l.001-.567a18.13 18.13 0 0 0-.235-.003Z"/></svg>