<svg width="16" height="15" viewBox="0 0 16 15" fill="none" xmlns="http://www.w3.org/2000/svg">
<path d="M8.39011 1.04942C8.11973 1.31599 8.09437 1.73722 8.31601 2.03277L8.38259 2.11005L12.9583 6.75016L1.25 6.75016C0.835787 6.75016 0.5 7.08595 0.5 7.50016C0.5 7.88251 0.786114 8.19804 1.15592 8.24432L1.25 8.25016H12.9583L8.38259 12.8903C8.11601 13.1607 8.09663 13.5822 8.32245 13.8746L8.39011 13.9509C8.66049 14.2175 9.08204 14.2369 9.37442 14.0111L9.45074 13.9434L15.2841 8.02672C15.548 7.75904 15.57 7.34257 15.3501 7.05009L15.2841 6.97361L9.45074 1.05694C9.15994 0.761977 8.68507 0.75861 8.39011 1.04942Z" fill="#E1A19B"/>
</svg>
