<svg width="14" height="14" viewBox="0 0 14 14" fill="none" xmlns="http://www.w3.org/2000/svg">
<path d="M7 0.5C10.589 0.5 13.5 3.41 13.5 7C13.5 10.59 10.589 13.5 7 13.5C3.41 13.5 0.5 10.59 0.5 7C0.5 3.41 3.41 0.5 7 0.5ZM7 2C4.23843 2 2 4.23843 2 7C2 9.76157 4.23843 12 7 12C9.76095 12 12 9.76119 12 7C12 4.23881 9.76095 2 7 2ZM6.57025 3.68C6.98446 3.68 7.32025 4.01579 7.32025 4.43V6.83909L9.69674 7.6436C10.0891 7.77642 10.2995 8.20215 10.1666 8.59449C10.0338 8.98683 9.6081 9.19722 9.21576 9.0644L6.32976 8.0874C6.0252 7.9843 5.82025 7.69853 5.82025 7.377V4.43C5.82025 4.01579 6.15604 3.68 6.57025 3.68Z" fill="#8F8F8F"/>
</svg>
