<svg width="100" height="100" viewBox="0 0 100 100" fill="none" xmlns="http://www.w3.org/2000/svg">
<rect width="100" height="100" fill="white"/>
<path fill-rule="evenodd" clip-rule="evenodd" d="M25.9321 61.3199C28.6158 64.7804 32.4328 67.2216 36.7363 68.23L37.4537 65.254C33.8467 64.4084 30.6476 62.3619 28.3985 59.4612C26.1493 56.5604 24.9884 52.9839 25.1124 49.3374C25.2365 45.6909 26.6378 42.1987 29.0789 39.4525C31.5201 36.7062 34.8511 34.8747 38.5075 34.2682C41.1966 33.8222 43.9401 34.059 46.4849 34.9343C43.9639 37.0132 42.0174 39.7049 40.8506 42.7602C39.391 46.5824 39.2306 50.7674 40.3936 54.687C41.5566 58.6066 43.9803 62.0493 47.3007 64.4984C50.6212 66.9475 54.6594 68.2708 58.8092 68.2698C63.5095 68.2729 68.0474 66.5776 71.5612 63.5056C75.0749 60.4337 77.3199 56.1991 77.8698 51.6059C78.4196 47.0126 77.2362 42.3807 74.544 38.5894C71.8519 34.7982 67.8386 32.1117 63.2661 31.0401L62.5511 34.0067C66.1569 34.8531 69.3545 36.8997 71.6027 39.7998C73.8508 42.7 75.0113 46.2754 74.8877 49.9209C74.764 53.5663 73.3637 57.0577 70.924 59.8039C68.4843 62.55 65.155 64.3822 61.4999 64.9901C58.8076 65.4379 56.0604 65.2012 53.5125 64.3243C56.2327 62.0769 58.2786 59.1184 59.3986 55.7678C60.7808 51.6328 60.6677 47.1548 59.0785 43.0925C57.4893 39.0301 54.5217 35.6332 50.6786 33.4773C46.8354 31.3214 42.3529 30.539 37.9906 31.2627C33.6283 31.9864 29.6544 34.1717 26.7421 37.4483C23.8298 40.725 22.1583 44.8915 22.0107 49.242C21.8631 53.5925 23.2485 57.8594 25.9321 61.3199ZM50.3663 62.8475C53.2218 60.8911 55.3603 58.0716 56.451 54.8084C57.6095 51.3426 57.5147 47.5892 56.1827 44.1842C54.9193 40.9545 52.6164 38.2266 49.6337 36.4121C46.7735 38.3718 44.6328 41.1972 43.5438 44.4668C42.3894 47.9328 42.4877 51.685 43.8223 55.0879C45.0868 58.3123 47.3877 61.0355 50.3663 62.8475Z" fill="black"/>
</svg>
