<svg width="16" height="19" viewBox="0 0 16 19" fill="none" xmlns="http://www.w3.org/2000/svg">
<path d="M8 0C12.148 0 15.5 3.43256 15.5 7.5C15.5 10.3504 13.6566 13.6715 10.0654 17.5948C10.0097 17.6556 9.95138 17.7139 9.89056 17.7696C8.74986 18.8138 6.97867 18.7355 5.9346 17.5948C2.34343 13.6715 0.5 10.3504 0.5 7.5C0.5 3.43256 3.85205 0 8 0ZM8 1.5C4.61818 1.5 2 4.32518 2 7.5C2 9.88319 3.68035 12.9105 7.04105 16.582C7.52582 17.1116 8.34815 17.1479 8.87776 16.6632C8.906 16.6373 8.93308 16.6102 8.95893 16.582C12.3196 12.9105 14 9.88319 14 7.5C14 4.32518 11.3818 1.5 8 1.5ZM8 4C9.93243 4 11.5 5.56757 11.5 7.5C11.5 9.43243 9.93243 11 8 11C6.06757 11 4.5 9.43243 4.5 7.5C4.5 5.56757 6.06757 4 8 4ZM8 5.5C6.896 5.5 6 6.396 6 7.5C6 8.604 6.896 9.5 8 9.5C9.104 9.5 10 8.604 10 7.5C10 6.396 9.104 5.5 8 5.5Z" fill="black"/>
</svg>
