<svg width="24" height="24" viewBox="0 0 24 24" fill="none" xmlns="http://www.w3.org/2000/svg">
<path d="M11.997 22C11.8801 22 11.7607 21.9979 11.6419 21.9937L11.6119 21.9926L11.603 21.992L11.58 21.9913C11.5599 21.9905 11.5397 21.9896 11.5196 21.9887C11.4443 21.9851 11.37 21.9807 11.2958 21.9756C11.2629 21.9733 11.2296 21.9708 11.1963 21.9682C11.1963 21.9682 11.1967 21.9682 11.197 21.9682C11.1776 21.9667 11.1579 21.9651 11.1383 21.9634C11.0477 21.9557 10.9577 21.9467 10.8681 21.9367C10.8611 21.9359 10.8541 21.9351 10.8472 21.9343C10.8407 21.9335 10.8344 21.9328 10.8281 21.9321C10.8033 21.9292 10.7784 21.9262 10.7536 21.9231C5.81921 21.3098 2 17.1009 2 12C2 6.89908 5.81921 2.69017 10.7541 2.07686C10.7542 2.07757 10.7539 2.07725 10.7536 2.07692L10.8131 2.06971C10.9209 2.05696 11.0292 2.04592 11.138 2.03663L10.7536 2.07692C10.8969 2.0591 11.0412 2.04431 11.1863 2.03263C11.2978 2.02365 11.4101 2.01648 11.5229 2.01118C11.5573 2.00957 11.591 2.00815 11.6248 2.00691C11.6818 2.0048 11.7398 2.00315 11.7979 2.002L11.7103 2.00412C11.8059 2.0014 11.9018 2.00002 11.998 2L11.999 2H12C12.1135 2 12.2265 2.00189 12.3391 2.00564L12 2C12.1393 2 12.278 2.00285 12.4159 2.00849L12 2C12.1614 2 12.322 2.00383 12.4816 2.01139C12.5332 2.01384 12.5842 2.01665 12.6351 2.01984C12.6702 2.02204 12.7051 2.02441 12.74 2.02696C12.7768 2.02966 12.8124 2.03246 12.848 2.03544C12.8746 2.03768 12.9014 2.04004 12.9281 2.04249C13.0456 2.05331 13.1626 2.06616 13.2789 2.08101C13.2917 2.08265 13.3044 2.08429 13.317 2.08596C13.4426 2.10247 13.5677 2.12137 13.692 2.14256C13.7034 2.14449 13.715 2.14648 13.7265 2.1485C18.4264 2.96625 22 7.06579 22 12C22 17.2529 17.9499 21.5598 12.802 21.9683C12.8024 21.9676 12.8027 21.9679 12.803 21.9682L12.7408 21.9721C12.7405 21.9724 12.7402 21.9727 12.74 21.973L12.6341 21.9802C12.5842 21.9833 12.5342 21.9861 12.4841 21.9885L12.4035 21.992L12.383 21.992L12.3717 21.9932C12.3571 21.9938 12.3425 21.9943 12.3279 21.9947C12.2191 21.9982 12.1098 22 12 22H11.997ZM14.0121 16.0011L9.87044 16.0012C10.2384 17.6916 10.8647 19.217 11.679 20.4935C11.7786 20.4977 11.8781 20.4997 11.978 20.5C12.874 19.2493 13.5781 17.7183 14.0121 16.0011ZM19.5018 16.0002L15.5536 16.0007C15.193 17.5718 14.6256 19.0202 13.8944 20.2878C16.3235 19.7355 18.3576 18.1415 19.5018 16.0002ZM8.3395 16.0008L4.49823 16.0002C5.59261 18.0483 7.50118 19.5957 9.7916 20.2103C9.13876 18.9485 8.64241 17.528 8.3395 16.0008ZM8.2478 9.49996L3.87362 9.49991C3.63073 10.2904 3.5 11.1299 3.5 12C3.5 12.8705 3.63084 13.7103 3.87393 14.5011L8.10909 14.501C8.03723 13.8481 8 13.1799 8 12.5C8 11.4689 8.08563 10.4648 8.2478 9.49996ZM14.3139 9.50012L9.76986 9.50001C9.59399 10.4565 9.5 11.4612 9.5 12.5C9.5 13.183 9.54064 13.8514 9.61847 14.5009L14.3138 14.5009C14.4356 13.696 14.5 12.8596 14.5 12C14.5 11.1408 14.4357 10.3047 14.3139 9.50012ZM20.1264 9.49991L15.829 9.50076C15.9413 10.3107 16 11.1461 16 12C16 12.8543 15.9412 13.69 15.8288 14.5002L20.1261 14.5011C20.3692 13.7103 20.5 12.8705 20.5 12C20.5 11.1299 20.3693 10.2904 20.1264 9.49991ZM10.454 3.64117L10.2568 3.67892C7.76009 4.1993 5.66527 5.81503 4.4977 8.00075L8.56898 8.00014C8.99218 6.38368 9.63694 4.90852 10.454 3.64117ZM12.1784 3.78832L12.0582 3.94858C11.2334 5.08743 10.5682 6.46183 10.1231 8L14.0123 7.99994C13.6112 6.41233 12.9792 4.98383 12.1784 3.78832ZM13.8934 3.71166L13.9199 3.75673C14.639 5.01397 15.1974 6.44716 15.5538 8.00029L19.5023 8.00075C18.3582 5.85901 16.3238 4.26456 13.8934 3.71166Z" fill="#E1A19B"/>
</svg>
