<svg width="24" height="24" viewBox="0 0 24 24" fill="none" xmlns="http://www.w3.org/2000/svg">
<path d="M2 12C2 17.52 6.48 22 12 22C17.52 22 22 17.52 22 12C22 6.48 17.52 2 12 2C6.48 2 2 6.48 2 12ZM10.75 18.25V17.75C10.75 17.1977 11.1977 16.75 11.75 16.75H12.25C12.8023 16.75 13.25 17.1977 13.25 17.75V18.25C13.25 18.8023 12.8023 19.25 12.25 19.25H11.75C11.1977 19.25 10.75 18.8023 10.75 18.25ZM14.17 12.17C13.6347 12.7127 13.2487 13.1835 13.0858 14.0057C13.0783 14.0436 13.0712 14.0872 13.0644 14.1365C12.9962 14.6314 12.5733 15 12.0737 15H12C11.4711 15 11.0424 14.5713 11.0424 14.0424C11.0424 14.0153 11.0435 13.9882 11.0459 13.9612C11.0542 13.8635 11.0632 13.7897 11.0729 13.7396C11.2276 12.9427 11.62 12.2276 12.17 11.67L13.41 10.41C13.78 10.05 14 9.55 14 9C14 7.9 13.1 7 12 7C11.301 7 10.6828 7.36339 10.325 7.91057C10.2616 8.00737 10.2044 8.13709 10.1534 8.29971C10.0224 8.71646 9.63615 9 9.19932 9H9C8.52841 9 8.14612 8.6177 8.14612 8.14612C8.14612 8.08264 8.1532 8.01937 8.16724 7.95746C8.22771 7.6905 8.29635 7.47471 8.37314 7.31009C9.00979 5.94528 10.394 5 12 5C14.21 5 16 6.79 16 9C16 9.88 15.64 10.68 15.07 11.25L14.17 12.17Z" fill="#E1A19B"/>
</svg>
