<svg width="120" height="120" viewBox="0 0 120 120" fill="none" xmlns="http://www.w3.org/2000/svg">
<g opacity="0.08">
<path d="M64.9309 15.0181C72.7662 15.0339 74.4876 15.0994 78.5475 15.2847C83.3359 15.5033 86.6059 16.2636 89.4675 17.3758C92.4257 18.5254 94.9345 20.0636 97.4354 22.5645C99.9363 25.0654 101.474 27.5741 102.624 30.5324C103.736 33.394 104.497 36.664 104.715 41.4524C104.917 45.8813 104.977 47.5273 104.985 57.3638V62.6359C104.977 72.4724 104.917 74.1184 104.715 78.5474C104.497 83.3357 103.736 86.6057 102.624 89.4674C101.474 92.4256 99.9363 94.9343 97.4354 97.4352C94.9345 99.9361 92.4257 101.474 89.4675 102.624C86.6059 103.736 83.3359 104.496 78.5475 104.715C74.1185 104.917 72.4725 104.977 62.6361 104.985H57.3639C47.5275 104.977 45.8816 104.917 41.4525 104.715C36.6641 104.496 33.3941 103.736 30.5325 102.624C27.5743 101.474 25.0655 99.9361 22.5646 97.4352C20.0638 94.9343 18.5255 92.4254 17.3759 89.4674C16.2638 86.6057 15.5034 83.3357 15.2848 78.5474C15.0996 74.4875 15.0341 72.766 15.0184 64.9308V55.0689C15.0341 47.2337 15.0996 45.5122 15.2848 41.4524C15.5034 36.664 16.2638 33.394 17.3759 30.5324C18.5255 27.5741 20.0638 25.0654 22.5646 22.5645C25.0655 20.0636 27.5743 18.5254 30.5325 17.3758C33.3941 16.2636 36.6641 15.5033 41.4525 15.2847C45.5125 15.0994 47.2339 15.0339 55.0691 15.0181H64.9309ZM64.87 23.9839H55.0903C47.7277 23.9986 46.1254 24.0584 42.2358 24.2359C37.9546 24.4313 35.6295 25.1467 34.0821 25.7479C32.0324 26.5445 30.5694 27.4962 29.0329 29.0327C27.4963 30.5693 26.5446 32.0323 25.7482 34.0818C25.1468 35.6293 24.4315 37.9544 24.2361 42.2358C24.0586 46.1253 23.9987 47.7275 23.9841 55.0902V64.8698C23.9987 72.2325 24.0586 73.8347 24.2361 77.7244C24.4315 82.0056 25.1468 84.3307 25.7482 85.8782C26.5446 87.9278 27.4963 89.3908 29.0329 90.9273C30.5694 92.4638 32.0324 93.4156 34.0821 94.212C35.6295 94.8134 37.9546 95.5287 42.236 95.7241C46.4953 95.9185 48.0114 95.9718 57.3575 95.9791H62.6028C71.9489 95.9718 73.4651 95.9185 77.7244 95.7241C82.0058 95.5287 84.3309 94.8134 85.8784 94.212C87.9279 93.4156 89.3909 92.4638 90.9275 90.9273C92.464 89.3908 93.4157 87.9278 94.2121 85.8782C94.8135 84.3307 95.5289 82.0056 95.7243 77.7242C95.9356 73.0938 95.9802 71.7051 95.9802 59.98L95.98 58.6217C95.9763 48.1386 95.9271 46.681 95.7243 42.2356C95.5289 37.9544 94.8135 35.6293 94.2121 34.0818C93.4157 32.0323 92.464 30.5693 90.9275 29.0327C89.3909 27.4962 87.9279 26.5445 85.8784 25.7479C84.3309 25.1467 82.0058 24.4313 77.7244 24.2359C73.8349 24.0584 72.2327 23.9986 64.87 23.9839ZM60 35.9999C73.2548 35.9999 84 46.7451 84 59.9999C84 73.2546 73.2548 83.9999 60 83.9999C46.7452 83.9999 36 73.2546 36 59.9999C36 46.7451 46.7452 35.9999 60 35.9999ZM60 45.0045C51.7184 45.0045 45.0046 51.7183 45.0046 59.9999C45.0046 68.2815 51.7184 74.9952 60 74.9952C68.2816 74.9952 74.9954 68.2815 74.9954 59.9999C74.9954 51.7183 68.2816 45.0045 60 45.0045ZM84.0136 30.5881C86.995 30.5881 89.4118 33.0049 89.4118 35.9863C89.4118 38.9677 86.995 41.3847 84.0136 41.3847C81.0321 41.3847 78.6152 38.9677 78.6152 35.9863C78.6152 33.0049 81.0321 30.5881 84.0136 30.5881Z" fill="#E1A19B"/>
</g>
</svg>
