<svg width="16" height="16" viewBox="0 0 16 16" fill="none" xmlns="http://www.w3.org/2000/svg">
<path d="M8.82181 0.50293C10.1277 0.505562 10.4146 0.516491 11.0912 0.547366C11.8893 0.583794 12.4343 0.710521 12.9112 0.895878C13.4043 1.08748 13.8224 1.34385 14.2392 1.76067C14.656 2.17748 14.9124 2.59561 15.104 3.08865C15.2894 3.56558 15.4161 4.11058 15.4525 4.90865C15.4862 5.64681 15.4961 5.92114 15.4975 7.56055V8.43924C15.4961 10.0786 15.4862 10.353 15.4525 11.0911C15.4161 11.8892 15.2894 12.4342 15.104 12.9111C14.9124 13.4042 14.656 13.8223 14.2392 14.2391C13.8224 14.6559 13.4043 14.9123 12.9112 15.1039C12.4343 15.2893 11.8893 15.416 11.0912 15.4524C10.3531 15.4861 10.0787 15.496 8.43934 15.4974H7.56064C5.92124 15.496 5.64693 15.4861 4.90874 15.4524C4.11067 15.416 3.56567 15.2893 3.08874 15.1039C2.5957 14.9123 2.17758 14.6559 1.76076 14.2391C1.34395 13.8223 1.08758 13.4042 0.895972 12.9111C0.710615 12.4342 0.583889 11.8892 0.54746 11.0911C0.516586 10.4145 0.505677 10.1276 0.503052 8.82171V7.17808C0.505677 5.8722 0.516586 5.58529 0.54746 4.90865C0.583889 4.11058 0.710615 3.56558 0.895972 3.08865C1.08758 2.59561 1.34395 2.17748 1.76076 1.76067C2.17758 1.34385 2.5957 1.08748 3.08874 0.895878C3.56567 0.710521 4.11067 0.583794 4.90874 0.547366C5.58541 0.516491 5.8723 0.505562 7.17817 0.50293H8.82181ZM8.81166 1.99724H7.18171C5.9546 1.99968 5.68756 2.00966 5.03929 2.03924C4.32575 2.0718 3.93823 2.19103 3.68034 2.29123C3.33872 2.424 3.09489 2.58262 2.8388 2.83871C2.58271 3.0948 2.42409 3.33863 2.29136 3.68022C2.19113 3.93814 2.0719 4.32566 2.03933 5.03922C2.00976 5.68747 1.99978 5.95451 1.99734 7.18161V8.81156C1.99978 10.0387 2.00976 10.3057 2.03933 10.954C2.0719 11.6675 2.19113 12.055 2.29136 12.313C2.42409 12.6545 2.58271 12.8984 2.8388 13.1545C3.09489 13.4106 3.33872 13.5692 3.68034 13.7019C3.93823 13.8021 4.32575 13.9214 5.03932 13.9539C5.7492 13.9863 6.00189 13.9952 7.55957 13.9964H8.4338C9.99148 13.9952 10.2442 13.9863 10.9541 13.9539C11.6676 13.9214 12.0551 13.8021 12.3131 13.7019C12.6546 13.5692 12.8985 13.4106 13.1546 13.1545C13.4107 12.8984 13.5693 12.6545 13.702 12.313C13.8022 12.055 13.9215 11.6675 13.954 10.954C13.9892 10.1822 13.9967 9.95077 13.9967 7.99659L13.9966 7.77021C13.996 6.02302 13.9878 5.78008 13.954 5.03919C13.9215 4.32566 13.8022 3.93814 13.702 3.68022C13.5693 3.33863 13.4107 3.0948 13.1546 2.83871C12.8985 2.58262 12.6546 2.424 12.3131 2.29123C12.0551 2.19103 11.6676 2.0718 10.9541 2.03924C10.3058 2.00966 10.0388 1.99968 8.81166 1.99724ZM7.99999 3.9999C10.2091 3.9999 12 5.79077 12 7.9999C12 10.209 10.2091 11.9999 7.99999 11.9999C5.79086 11.9999 3.99999 10.209 3.99999 7.9999C3.99999 5.79077 5.79086 3.9999 7.99999 3.9999ZM7.99999 5.50067C6.61972 5.50067 5.50076 6.61963 5.50076 7.9999C5.50076 9.38016 6.61972 10.4991 7.99999 10.4991C9.38026 10.4991 10.4992 9.38016 10.4992 7.9999C10.4992 6.61963 9.38026 5.50067 7.99999 5.50067ZM12.0023 3.09793C12.4992 3.09793 12.902 3.50073 12.902 3.99763C12.902 4.49454 12.4992 4.89737 12.0023 4.89737C11.5053 4.89737 11.1025 4.49454 11.1025 3.99763C11.1025 3.50073 11.5053 3.09793 12.0023 3.09793Z" fill="#E1A19B"/>
</svg>
