<svg viewBox="0 0 166 18" fill="none" xmlns="http://www.w3.org/2000/svg">
    <g clip-path="url(#clip0)">
        <path d="M6.83926 17.6331C4.84137 17.165 3.06939 16.0316 1.82351 14.4251C0.577633 12.8186 -0.0655217 10.8377 0.0030083 8.81806C0.0715383 6.79838 0.847539 4.86411 2.19954 3.34295C3.55154 1.82179 5.39641 0.807289 7.42158 0.471314C9.44674 0.135339 11.5277 0.498556 13.3118 1.49943C15.096 2.5003 16.4737 4.07728 17.2114 5.96319C17.9492 7.84911 18.0017 9.92799 17.3601 11.8476C16.7184 13.7673 15.422 15.4096 13.6906 16.4965L12.9161 15.2989C14.3673 14.3879 15.4539 13.0113 15.9917 11.4022C16.5295 9.79323 16.4855 8.05076 15.8671 6.47002C15.2487 4.88928 14.094 3.56747 12.5986 2.72853C11.1032 1.88958 9.35899 1.58508 7.66152 1.86662C5.96405 2.14815 4.41768 2.99841 3.28439 4.27335C2.15109 5.54829 1.50055 7.16951 1.44298 8.86236C1.38541 10.5552 1.92434 12.2156 2.96848 13.5622C4.01262 14.9089 5.49777 15.8589 7.17231 16.2515L6.83926 17.6331Z"/>
        <path d="M17.0863 17.6515C15.1597 17.652 13.2851 17.0377 11.7436 15.9007C10.2021 14.7637 9.07691 13.1655 8.537 11.3458C7.99708 9.52621 8.07153 7.58335 8.74916 5.80889C9.42679 4.03443 10.6711 2.52408 12.2952 1.50456L13.0697 2.70216C11.6201 3.61465 10.5354 4.99207 9.99945 6.60117C9.4635 8.21027 9.50916 9.95217 10.1287 11.5319C10.7483 13.1117 11.9036 14.4323 13.3992 15.27C14.8947 16.1078 16.6386 16.4112 18.3354 16.129C20.0323 15.8467 21.5779 14.9962 22.7105 13.7213C23.8431 12.4464 24.4932 10.8256 24.5506 9.1332C24.608 7.44083 24.0692 5.78094 23.0255 4.43458C21.9819 3.08821 20.4974 2.13812 18.8234 1.74516L19.1554 0.36792C21.2781 0.865424 23.1412 2.11261 24.391 3.87266C25.6408 5.63271 26.1903 7.78307 25.935 9.91544C25.6797 12.0478 24.6375 14.0137 23.0063 15.4398C21.375 16.8659 19.2684 17.653 17.0863 17.6515Z"/>
        <path d="M33.5078 0.3125C39.1343 0.3125 43.0811 2.34952 43.0811 8.9886C43.0811 15.6756 39.1343 17.6887 33.5078 17.6887H29.2246V0.3125H33.5078ZM33.4591 1.77467H30.8522V16.2265H33.4591C37.4779 16.2265 41.3517 15.4121 41.3517 8.9886C41.3517 2.56509 37.4779 1.77467 33.4591 1.77467Z"/>
        <path d="M49.0305 0.3125C53.244 0.3125 56.2647 1.29236 56.2647 5.44151C56.2647 9.63531 53.244 10.4987 49.0305 10.4987H45.3791V17.6843H43.7393V0.3125H49.0305ZM45.3791 1.77467V9.01255H49.2518C52.1508 9.01255 54.5629 8.67722 54.5629 5.44151C54.5629 2.2058 52.1519 1.77467 49.2518 1.77467H45.3791Z"/>
        <path d="M63.0188 0C66.502 0 68.9384 1.67883 69.5957 4.64997H67.8906C67.282 2.63691 65.5526 1.53403 62.8484 1.53403C61.0702 1.53403 58.5607 2.22972 58.5607 4.50626C58.5607 6.25585 59.9992 7.11922 61.9709 7.57431L64.0666 8.0294C66.5993 8.60534 70.0095 9.58737 70.0095 12.9189C70.0095 16.2504 66.9114 18.0011 63.4813 18.0011C59.073 18.0011 56.6366 15.5798 56.2471 12.4638H57.9522C58.5607 15.2444 60.5104 16.4671 63.4082 16.4671C65.3324 16.4671 68.3044 15.7714 68.3044 13.1835C68.3044 11.0735 66.2099 10.0675 63.7247 9.53947L61.5117 9.06042C59.1981 8.55743 56.8833 7.42733 56.8833 4.57812C56.88 1.39031 60.1685 0 63.0188 0Z"/>
        <path d="M76.0386 0.3125C80.2531 0.3125 83.2738 1.29236 83.2738 5.44151C83.2738 9.63531 80.2531 10.4987 76.0386 10.4987H72.3872V17.6843H70.7529V0.3125H76.0386ZM72.3872 1.77467V9.01255H76.2599C79.1588 9.01255 81.571 8.67722 81.571 5.44151C81.571 2.2058 79.1588 1.77467 76.2599 1.77467H72.3872Z"/>
        <path d="M96.5759 0C100.059 0 102.496 1.67774 103.153 4.64997H101.448C100.839 2.63691 99.1097 1.53403 96.4055 1.53403C94.6274 1.53403 92.1179 2.22972 92.1179 4.50626C92.1179 6.25585 93.5563 7.11922 95.5291 7.57431L97.6237 8.0294C100.156 8.60534 103.567 9.58737 103.567 12.9189C103.567 16.2504 100.468 18.0011 97.0384 18.0011C92.6302 18.0011 90.1937 15.5798 89.8042 12.4638H91.5093C92.1179 15.2444 94.0675 16.4671 96.9653 16.4671C98.8895 16.4671 101.862 15.7714 101.862 13.1835C101.862 11.0735 99.767 10.0675 97.2829 9.53947L95.0699 9.06042C92.7563 8.55743 90.4415 7.42733 90.4415 4.57812C90.4371 1.39031 93.7256 0 96.5759 0Z"/>
        <path d="M108.909 1.79862H102.965V0.3125H116.484V1.79862H110.541V17.6887H108.909V1.79862Z"/>
        <path d="M119.024 0.3125V10.9538C119.024 14.6925 120.413 16.4671 124.164 16.4671C127.988 16.4671 129.352 14.429 129.352 10.6663V0.3125H130.984V10.4747C130.984 15.5319 129.157 18.0011 124.164 18.0011C119.365 18.0011 117.392 16.0588 117.392 10.6663V0.3125H119.024Z"/>
        <path d="M136.477 0.3125C142.104 0.3125 146.05 2.34952 146.05 8.9886C146.05 15.6756 142.104 17.6887 136.477 17.6887H132.189V0.3125H136.477ZM136.427 1.77358H133.822V16.2265H136.427C140.447 16.2265 144.32 15.4121 144.32 8.9886C144.32 2.56509 140.447 1.77358 136.427 1.77358Z"/>
        <path d="M148.753 17.6887H147.121V0.3125H148.753V17.6887Z"/>
        <path d="M157.908 18.0011C152.916 18.0011 149.822 14.2853 149.822 8.98857C149.822 3.69189 152.92 0 157.908 0C162.896 0 165.996 3.69189 165.996 8.98857C165.996 14.2853 162.905 18.0011 157.908 18.0011ZM157.908 16.4671C161.514 16.4671 164.266 13.7583 164.266 8.98857C164.266 4.21884 161.514 1.53403 157.908 1.53403C154.302 1.53403 151.552 4.21884 151.552 8.98857C151.552 13.7583 154.307 16.4671 157.908 16.4671Z"/>
    </g>
    <defs>
        <clipPath id="clip0">
            <rect width="166" height="18" fill="white"/>
        </clipPath>
    </defs>
</svg>
