<svg viewBox="0 0 24 24" fill="none" xmlns="http://www.w3.org/2000/svg">
<path d="M15.0976 11.9973C15.0976 13.7057 13.7116 15.0918 12.0032 15.0918C10.2948 15.0918 8.90881 13.7057 8.90881 11.9973C8.90881 10.289 10.2948 8.90292 12.0032 8.90292C13.7116 8.90292 15.0976 10.2954 15.0976 11.9973ZM12.0032 1.71484C6.33013 1.71484 1.71429 6.33068 1.71429 12.0038C1.71429 17.6769 6.33013 22.2863 12.0032 22.2863C14.0791 22.2863 16.084 21.6674 17.7988 20.4941L17.831 20.4747L16.445 18.8631L16.4192 18.876C15.0976 19.7205 13.5762 20.1718 12.0032 20.1718C7.49698 20.1718 3.82881 16.5036 3.82881 11.9973C3.82881 7.49109 7.49698 3.82292 12.0032 3.82292C16.5095 3.82292 20.1776 7.49109 20.1776 11.9973C20.1776 12.584 20.1132 13.1706 19.9842 13.7573C19.7264 14.821 18.985 15.1433 18.4241 15.0982C17.8633 15.0531 17.2057 14.6534 17.1993 13.6735V11.9973C17.1993 9.12855 14.8656 6.79484 11.9968 6.79484C9.128 6.79484 6.79429 9.12855 6.79429 11.9973C6.79429 14.8661 9.128 17.1998 11.9968 17.1998C13.3893 17.1998 14.6979 16.6519 15.6843 15.6655C16.258 16.5552 17.1928 17.116 18.2565 17.1998C18.3468 17.2063 18.4435 17.2127 18.5337 17.2127C19.2815 17.2127 20.0229 16.9613 20.6225 16.51C21.2413 16.0394 21.6991 15.3625 21.9505 14.5502C21.9892 14.4213 22.0665 14.1183 22.0665 14.1183V14.1054C22.2148 13.4543 22.2857 12.8032 22.2857 11.9973C22.2922 6.33068 17.6763 1.71484 12.0032 1.71484Z"/>
</svg>
