<svg class="search" viewBox="0 0 18 18" fill="none" xmlns="http://www.w3.org/2000/svg">
<path d="M7.75 0.5C11.7541 0.5 15 3.74594 15 7.75C15 9.39122 14.4547 10.9051 13.5353 12.1202L17.7071 16.2929C18.0976 16.6834 18.0976 17.3166 17.7071 17.7071C17.3166 18.0976 16.6834 18.0976 16.2929 17.7071L12.1202 13.5353C10.9051 14.4547 9.39122 15 7.75 15C3.74594 15 0.5 11.7541 0.5 7.75C0.5 3.74594 3.74594 0.5 7.75 0.5ZM7.75 2.5C4.8505 2.5 2.5 4.8505 2.5 7.75C2.5 10.6495 4.8505 13 7.75 13C10.6495 13 13 10.6495 13 7.75C13 4.8505 10.6495 2.5 7.75 2.5Z"/>
</svg>
