<svg width="24" height="24" viewBox="0 0 24 24" fill="none" xmlns="http://www.w3.org/2000/svg">
<path d="M14.5 20.9991H19.5C20.3284 20.9991 21 20.3276 21 19.4991V14.4991C21 13.6707 20.3284 12.9991 19.5 12.9991H14.5C13.6716 12.9991 13 13.6707 13 14.4991V19.4991C13 20.3276 13.6716 20.9991 14.5 20.9991ZM11 19.4991V14.4991C11 13.6707 10.3284 12.9991 9.5 12.9991H4.5C3.67157 12.9991 3 13.6707 3 14.4991V19.4991C3 20.3276 3.67157 20.9991 4.5 20.9991H9.5C10.3284 20.9991 11 20.3276 11 19.4991ZM4.5 10.9991H9.5C10.3284 10.9991 11 10.3276 11 9.49915V4.49915C11 3.67072 10.3284 2.99915 9.5 2.99915H4.5C3.67157 2.99915 3 3.67072 3 4.49915V9.49915C3 10.3276 3.67157 10.9991 4.5 10.9991ZM12.0607 8.39981L15.5993 11.9385C16.1851 12.5243 17.1349 12.5243 17.7207 11.9385L21.2593 8.39981C21.8461 7.81496 21.8461 6.86521 21.2603 6.27942C21.26 6.27911 21.2597 6.2788 21.2584 6.27942L17.7197 2.747C17.1342 2.16246 16.1858 2.16246 15.6003 2.747L12.0616 6.27942C11.4744 6.86375 11.4735 7.8135 12.0588 8.39981C12.0591 8.40012 12.0594 8.40043 12.0607 8.39981Z" fill="#E1A19B"/>
</svg>
