<svg width="19" height="16" viewBox="0 0 19 16" fill="none" xmlns="http://www.w3.org/2000/svg">
<path d="M9.03187 0.259107C9.35633 0.578996 9.38676 1.08447 9.12078 1.43913L9.04089 1.53187L3.55 7.1L17.6 7.1C18.0971 7.1 18.5 7.50294 18.5 8C18.5 8.45882 18.1567 8.83745 17.7129 8.89299L17.6 8.9H3.55L9.04089 14.4681C9.36078 14.7926 9.38404 15.2984 9.11306 15.6493L9.03187 15.7409C8.70741 16.0608 8.20155 16.084 7.8507 15.8131L7.75911 15.7319L0.759106 8.63187C0.442419 8.31066 0.416031 7.81089 0.679935 7.45992L0.759106 7.36813L7.75911 0.268133C8.10808 -0.0858223 8.67791 -0.0898636 9.03187 0.259107Z" fill="black"/>
</svg>
