<svg viewBox="0 0 200 200" fill="none" xmlns="http://www.w3.org/2000/svg">
<path d="M152.317 21.7444C113.9 22.4611 87.1391 3.04994 68.628 3.39994C50.1169 3.74994 11.428 15.1166 13.0224 100.289C14.6169 185.461 67.1558 196.978 87.5224 196.6C182.872 194.817 220.361 20.4722 152.317 21.7444Z" fill="#EFEFEF"/>
<path d="M57.3525 19.9255L65.2093 12.0688L69.1376 15.9972L61.2809 23.8539L57.3525 19.9255Z" fill="#A4AFC1"/>
<path d="M34.7686 42.5107L42.6253 34.654L46.5537 38.5824L38.6969 46.4391L34.7686 42.5107Z" fill="#A4AFC1"/>
<path d="M34.7783 15.0232L38.7067 11.0948L46.5634 18.9516L42.6351 22.8799L34.7783 15.0232Z" fill="#A4AFC1"/>
<path d="M162.499 47.2223C157.905 47.2223 154.166 43.4834 154.166 38.889C154.166 34.2946 157.905 30.5557 162.499 30.5557C167.094 30.5557 170.833 34.2946 170.833 38.889C170.833 43.4834 167.094 47.2223 162.499 47.2223ZM162.499 36.1112C160.966 36.1112 159.722 37.3612 159.722 38.889C159.722 40.4168 160.966 41.6668 162.499 41.6668C164.033 41.6668 165.277 40.4168 165.277 38.889C165.277 37.3612 164.033 36.1112 162.499 36.1112Z" fill="#A4AFC1"/>
<path d="M104.983 43.5501L115.922 38.5778C122.267 35.6945 129.728 38.7834 132.178 45.3112L136.4 56.5612C137.622 59.8167 140.189 62.3834 143.444 63.6056L154.694 67.8278C161.222 70.2778 164.311 77.739 161.428 84.0834L156.456 95.0223C155.017 98.189 155.017 101.817 156.456 104.983L161.428 115.922C164.311 122.267 161.222 129.728 154.694 132.178L143.444 136.4C140.189 137.622 137.622 140.189 136.4 143.445L132.178 154.695C129.728 161.222 122.267 164.311 115.922 161.428L104.983 156.456C101.817 155.017 98.1889 155.017 95.0223 156.456L84.0834 161.428C77.739 164.311 70.2778 161.222 67.8278 154.695L63.6056 143.445C62.3834 140.189 59.8167 137.622 56.5612 136.4L45.3112 132.178C38.7834 129.728 35.6945 122.267 38.5778 115.922L43.5501 104.983C44.989 101.817 44.989 98.189 43.5501 95.0223L38.5778 84.0834C35.6945 77.739 38.7834 70.2778 45.3112 67.8278L56.5612 63.6056C59.8167 62.3834 62.3834 59.8167 63.6056 56.5612L67.8278 45.3112C70.2778 38.7834 77.739 35.6945 84.0834 38.5778L95.0223 43.5501C98.1834 44.989 101.817 44.989 104.983 43.5501Z" fill="#F7E4E0"/>
<path d="M71.3172 123.611L65.2783 88.4277L84.9061 97.9888L100.001 70.8333L115.095 97.9888L134.723 88.4277L128.684 123.611H71.3172Z" fill="#F3F3F1"/>
<path d="M65.2783 88.4277L71.3172 123.611H82.4283L77.4005 94.3333L65.2783 88.4277Z" fill="#D5DBE1"/>
<path d="M106.128 43.55C109.295 44.9889 112.922 44.9889 116.089 43.55L126.367 38.8778C123.217 37.2667 119.411 36.9889 115.917 38.5778L105.556 43.2889L106.128 43.55Z" fill="#F7E4E0"/>
<path d="M78.939 154.683L74.7167 143.433C73.4945 140.178 70.9279 137.611 67.6723 136.389L56.4223 132.167C49.8945 129.717 46.8056 122.256 49.689 115.911L54.6556 104.972C56.0945 101.806 56.0945 98.1777 54.6556 95.0111L49.689 84.0722C46.8056 77.7277 49.8945 70.2666 56.4223 67.8166L67.6723 63.5944C70.9279 62.3722 73.4945 59.8055 74.7167 56.5499L78.939 45.2999C80.039 42.3666 82.1779 40.1833 84.7445 38.8666L84.0834 38.5666C77.739 35.6833 70.2779 38.7722 67.8279 45.2999L63.6056 56.5499C62.3834 59.8055 59.8167 62.3722 56.5612 63.5944L45.3112 67.8166C38.7834 70.2666 35.6945 77.7277 38.5778 84.0722L43.5445 95.0111C44.9834 98.1777 44.9834 101.806 43.5445 104.972L38.5778 115.911C35.6945 122.256 38.7834 129.717 45.3112 132.167L56.5612 136.389C59.8167 137.611 62.3834 140.178 63.6056 143.433L67.8279 154.683C70.2779 161.211 77.739 164.3 84.0834 161.417L84.7445 161.117C82.1779 159.8 80.039 157.617 78.939 154.683Z" fill="#E9B1A5"/>
<path d="M116.095 156.45C112.928 155.011 109.3 155.011 106.133 156.45L105.556 156.711L115.917 161.417C119.411 163.006 123.222 162.728 126.367 161.117L116.095 156.45Z" fill="#F7E4E0"/>
<path d="M79.1003 166.656C76.9892 166.656 74.8836 166.25 72.9003 165.428C68.7669 163.711 65.4947 160.333 63.9281 156.144L59.7058 144.9C58.9058 142.772 57.2281 141.089 55.1003 140.294L43.8503 136.072C39.6669 134.506 36.2836 131.233 34.5725 127.106C32.8614 122.972 32.9392 118.267 34.7947 114.194L39.7669 103.256C40.7058 101.189 40.7058 98.8111 39.7669 96.7444L34.7947 85.8055C32.9447 81.7333 32.8614 77.0278 34.5725 72.8944C36.2836 68.7666 39.6669 65.4944 43.8558 63.9278L55.1003 59.7055C57.2336 58.9055 58.9114 57.2278 59.7114 55.1L63.9336 43.8555C65.5058 39.6666 68.7725 36.2889 72.9058 34.5722C77.0336 32.8555 81.7392 32.9444 85.8114 34.7944L96.7447 39.7611C98.8114 40.7 101.184 40.7055 103.256 39.7611H103.261L114.2 34.7944C118.273 32.9444 122.978 32.8611 127.106 34.5722C131.239 36.2889 134.511 39.6666 136.078 43.8555L140.3 55.1C141.1 57.2278 142.778 58.9111 144.906 59.7055L156.156 63.9278C160.339 65.4944 163.723 68.7666 165.434 72.8944C167.145 77.0278 167.067 81.7333 165.211 85.8055L160.239 96.7444C159.3 98.8111 159.3 101.189 160.239 103.256L165.211 114.194C167.061 118.267 167.145 122.972 165.434 127.106C163.723 131.233 160.339 134.506 156.15 136.072L144.906 140.294C142.773 141.094 141.095 142.772 140.295 144.9L136.073 156.144C134.5 160.333 131.234 163.711 127.1 165.428C122.973 167.139 118.267 167.061 114.195 165.206L103.261 160.233C101.189 159.3 98.8169 159.3 96.7447 160.233L85.8058 165.206C83.6836 166.172 81.3892 166.656 79.1003 166.656ZM79.1003 41.6666C78.0836 41.6666 77.0614 41.8666 76.0892 42.2666C74.0503 43.1111 72.5058 44.7111 71.7281 46.7778L67.5058 58.0222C65.867 62.4 62.4058 65.8555 58.0225 67.5L46.7781 71.7222C44.7114 72.5 43.1114 74.0444 42.2669 76.0778C41.4225 78.1111 41.4614 80.3444 42.3725 82.35L47.3447 93.2889C49.2836 97.5555 49.2836 102.433 47.3447 106.7L42.3725 117.639C41.4614 119.644 41.4225 121.878 42.2669 123.911C43.1114 125.944 44.7114 127.494 46.7781 128.267L58.0281 132.489C62.4114 134.133 65.867 137.589 67.5114 141.967L71.7336 153.211C72.5114 155.278 74.0558 156.878 76.0947 157.722C78.1336 158.556 80.3558 158.522 82.3614 157.611L93.3003 152.639C97.5614 150.694 102.445 150.694 106.706 152.639L117.645 157.611C119.656 158.517 121.878 158.556 123.917 157.722C125.956 156.878 127.5 155.278 128.278 153.211L132.5 141.967C134.139 137.589 137.6 134.133 141.984 132.489L153.228 128.267C155.295 127.489 156.895 125.944 157.739 123.911C158.584 121.878 158.545 119.644 157.634 117.639L152.661 106.7C150.723 102.433 150.723 97.5555 152.661 93.2889L157.634 82.35C158.545 80.3444 158.584 78.1111 157.739 76.0778C156.895 74.0444 155.295 72.4944 153.228 71.7222L141.978 67.5C137.595 65.8555 134.139 62.4 132.495 58.0222L128.273 46.7778C127.495 44.7111 125.95 43.1111 123.911 42.2666C121.873 41.4277 119.645 41.4666 117.645 42.3777L106.706 47.3444C102.445 49.2944 97.5614 49.2944 93.2947 47.3444L82.3614 42.3777C81.3169 41.9055 80.2114 41.6666 79.1003 41.6666Z" fill="black"/>
<path d="M128.683 127.778H71.3168C69.289 127.778 67.5557 126.317 67.2113 124.317L61.1724 89.1334C60.9113 87.5945 61.5279 86.0334 62.7779 85.0945C64.0279 84.1501 65.6946 84.0001 67.1057 84.6834L83.1835 92.5112L96.3613 68.8056C97.8279 66.1556 102.172 66.1556 103.645 68.8056L109.2 78.8001L101.911 82.8501L100 79.4112L88.5446 100.011C87.4724 101.95 85.0724 102.711 83.0779 101.733L70.7613 95.7334L74.8279 119.45H125.172L129.239 95.7334L116.922 101.733C114.922 102.717 112.528 101.95 111.456 100.011L105.6 89.4778L112.889 85.4278L116.822 92.5056L132.9 84.6778C134.306 83.9945 135.978 84.1445 137.228 85.0889C138.478 86.0278 139.095 87.5834 138.833 89.1278L132.795 124.311C132.445 126.317 130.711 127.778 128.683 127.778Z" fill="black"/>
</svg>
