<svg viewBox="0 0 14 14" fill="none" xmlns="http://www.w3.org/2000/svg">
<path d="M9.85709 0.0712891C10.1727 0.0712891 10.4285 0.327126 10.4285 0.642718L10.4289 1.30547C10.9088 1.38182 11.2196 1.50516 11.5317 1.67209C12.0904 1.9709 12.5289 2.40939 12.8277 2.96813C13.0992 3.47574 13.2554 3.97961 13.2817 5.21361L13.2857 5.21415V9.39034L13.2826 9.73894C13.2593 11.0074 13.1026 11.5176 12.8277 12.0316C12.5289 12.5903 12.0904 13.0288 11.5317 13.3276C10.973 13.6264 10.4187 13.7856 8.89043 13.7856H5.10946L4.76087 13.7825C3.49245 13.7592 2.98224 13.6025 2.46821 13.3276C1.90948 13.0288 1.47099 12.5903 1.17218 12.0316C0.885315 11.4952 0.727187 10.963 0.714996 9.56913L0.714233 5.60938V5.21415C0.74452 3.97961 0.900701 3.47574 1.17218 2.96813C1.47099 2.40939 1.90948 1.9709 2.46821 1.67209C2.78047 1.50509 3.09131 1.38172 3.57155 1.30538L3.57138 0.642718C3.57138 0.327126 3.82721 0.0712891 4.1428 0.0712891C4.4584 0.0712891 4.71423 0.327126 4.71423 0.642718L4.7137 1.21813C4.83797 1.21548 4.96964 1.21415 5.10946 1.21415H8.89043C9.03047 1.21415 9.16233 1.21548 9.28677 1.21814L9.28566 0.642718C9.28566 0.327126 9.5415 0.0712891 9.85709 0.0712891ZM12.1422 6.357H1.85709L1.85762 9.55203L1.86267 9.87709C1.88489 10.7383 1.97589 11.111 2.17996 11.4926C2.37226 11.8522 2.64762 12.1275 3.00718 12.3198C3.43365 12.5479 3.84906 12.6348 4.94778 12.6422H9.05211L9.37717 12.6371C10.2384 12.6149 10.6111 12.5239 10.9927 12.3198C11.3523 12.1275 11.6276 11.8522 11.8199 11.4926C12.048 11.0662 12.1349 10.6508 12.1423 9.55203L12.1422 6.357ZM9.88338 9.21415C10.1307 9.21415 10.3254 9.26056 10.4884 9.34771C10.6513 9.43487 10.7792 9.56276 10.8664 9.72572C10.9535 9.88869 10.9999 10.0834 10.9999 10.3307V10.3833C10.9999 10.6306 10.9535 10.8253 10.8664 10.9883C10.7792 11.1512 10.6513 11.2791 10.4884 11.3663C10.3254 11.4534 10.1307 11.4999 9.88338 11.4999H9.8308C9.58349 11.4999 9.38877 11.4534 9.22581 11.3663C9.06285 11.2791 8.93495 11.1512 8.8478 10.9883C8.76065 10.8253 8.71423 10.6306 8.71423 10.3833V10.3307C8.71423 10.0834 8.76065 9.88869 8.8478 9.72572C8.93495 9.56276 9.06285 9.43487 9.22581 9.34771C9.38877 9.26056 9.58349 9.21415 9.8308 9.21415H9.88338ZM9.05211 2.35753H4.94778L4.71423 2.36043V2.92843C4.71423 3.24402 4.4584 3.49986 4.1428 3.49986C3.82721 3.49986 3.57138 3.24402 3.57138 2.92843L3.57095 2.46701C3.35341 2.51725 3.18122 2.5868 3.00718 2.67987C2.64762 2.87217 2.37226 3.14753 2.17996 3.5071C1.96886 3.90181 1.87875 4.28706 1.86062 5.21337L12.1388 5.21415L12.1372 5.12263C12.115 4.26139 12.024 3.88867 11.8199 3.5071C11.6276 3.14753 11.3523 2.87217 10.9927 2.67987C10.8187 2.58682 10.6466 2.51728 10.4291 2.46705L10.4285 2.92843C10.4285 3.24402 10.1727 3.49986 9.85709 3.49986C9.5415 3.49986 9.28566 3.24402 9.28566 2.92843L9.28701 2.36055C9.21233 2.35908 9.13412 2.35808 9.05211 2.35753Z"/>
</svg>
